<?xml version="1.0" standalone="no"?>
<!DOCTYPE svg PUBLIC "-//W3C//DTD SVG 20010904//EN"
 "http://www.w3.org/TR/2001/REC-SVG-20010904/DTD/svg10.dtd">
<svg version="1.0" xmlns="http://www.w3.org/2000/svg"
 width="700.000000pt" height="700.000000pt" viewBox="0 0 700.000000 700.000000"
 preserveAspectRatio="xMidYMid meet">
<metadata>
Created by potrace 1.14, written by Peter Selinger 2001-2017
</metadata>
<g transform="translate(0.000000,700.000000) scale(0.100000,-0.100000)"
fill="#000000" stroke="none">
<path d="M3415 6281 c-17 -10 -149 -162 -294 -337 -155 -188 -278 -328 -299
-341 -22 -14 -53 -23 -76 -23 -22 0 -224 50 -450 111 -442 120 -456 122 -522
77 -68 -46 -70 -57 -88 -512 -17 -442 -19 -457 -76 -498 -14 -9 -204 -80 -423
-157 -219 -77 -410 -147 -423 -156 -41 -26 -64 -74 -64 -132 0 -51 3 -55 199
-335 324 -460 296 -414 296 -478 0 -64 28 -18 -296 -478 -196 -280 -199 -284
-199 -335 0 -58 23 -106 64 -132 13 -9 204 -79 423 -156 219 -77 409 -148 423
-157 57 -41 59 -56 76 -498 18 -455 20 -466 88 -512 66 -45 80 -43 522 77 226
61 428 111 448 111 21 0 52 -7 70 -15 21 -10 124 -127 300 -341 148 -179 283
-335 300 -345 42 -26 130 -26 172 0 17 10 149 162 293 337 164 201 275 327
299 341 21 13 54 23 76 23 22 0 224 -50 450 -111 442 -120 456 -122 522 -77
68 46 70 58 88 511 17 429 19 450 67 493 10 9 201 81 424 159 222 78 416 150
430 159 42 27 65 75 65 133 0 51 -2 54 -216 360 -119 169 -231 328 -248 352
-26 36 -31 52 -31 101 0 49 5 65 31 101 17 24 129 183 248 352 214 306 216
309 216 360 0 58 -23 106 -65 133 -14 9 -208 81 -430 159 -223 78 -414 150
-424 159 -48 43 -50 64 -67 493 -18 453 -20 465 -88 511 -66 45 -80 43 -522
-77 -226 -61 -428 -111 -450 -111 -22 0 -55 10 -76 23 -23 14 -137 143 -299
341 -144 175 -276 327 -293 337 -42 25 -130 26 -171 0z m390 -1666 c313 -80
571 -308 649 -574 23 -79 21 -119 -6 -130 -13 -5 -117 -23 -232 -41 -170 -25
-212 -28 -222 -18 -6 7 -20 40 -29 73 -60 215 -229 345 -445 345 -332 0 -500
-273 -500 -810 0 -412 103 -684 294 -774 80 -38 147 -49 261 -44 87 4 111 9
166 35 97 45 161 109 210 208 38 77 42 91 43 167 l1 83 -214 3 c-138 1 -219 6
-228 13 -18 15 -19 289 -1 307 9 9 104 12 372 11 455 -1 553 -7 572 -33 12
-17 14 -111 14 -571 0 -415 -3 -554 -12 -563 -7 -7 -41 -12 -84 -12 -99 0
-111 11 -170 160 -26 66 -52 120 -57 120 -5 0 -51 -39 -102 -87 -176 -168
-319 -223 -581 -223 -415 0 -734 190 -912 545 -77 153 -115 302 -131 511 -36
465 107 867 392 1104 129 108 332 194 519 220 112 16 321 4 433 -25z"/>
</g>
</svg>
